# xmcd CD database file
#
# Track frame offsets:
#	150
#	13787
#	28932
#	40562
#	54727
#	83485
#	101377
#	112672
#	126537
#	142455
#	157025
#	171705
#	197412
#	213400
#	238255
#	251212
#	263167
#	283850
#	296335
#	306092
#
# Disc length: 4341 seconds
#
# Revision: 3
# Processed by: cddbd v1.5.2PL0 Copyright (c) Steve Scherf et al.
# Submitted via: CDex 1.79
#
DISCID=2f10f314
DTITLE=The Best Of Bluebird Jazz - Swing 2
DYEAR=1996
DGENRE=Jazz
TTITLE0=Duke Ellington - Blue Pepper (Far East Of The Blues)
TTITLE1=Count Basie - Basie's Basement
TTITLE2=Fats Waller - On The Bumpy Road To Love
TTITLE3=Dizzy Gillespie - Manteca
TTITLE4=Chet Baker - Well You Needn't
TTITLE5=Louis Armstrong - Ain't Misbehavin'
TTITLE6=Benny Goodman - China Boy
TTITLE7=Coleman Hawkins - Bouncing With Bean
TTITLE8=Glenn Miller - King Porter Stomp
TTITLE9=Jelly Roll Morton - Dead Man Blues (Take 1)
TTITLE10=Mugsy Spanier - Relaxin At the Touro (Take 1)
TTITLE11=Paul Desmond - When Joanna Loved Me
TTITLE12=Lionel Hampton - Hey! Be-Ba-Re-Bop
TTITLE13=Sonny Rollins - Blue 'N' Boogie
TTITLE14=Kenny Clarke - Epistrophy
TTITLE15=Benny Goodman And His Orchestra - I Want To Be Happy
TTITLE16=Louis Armstrong - Save It Pretty Mama
TTITLE17=Artie Shaw And His Orchestra - Special Delivery Stomp
TTITLE18=Illinois Jacquet - Adam's Alley
TTITLE19=Duke Ellington - Blood Count
EXTD=YEAR: 1996
EXTT0=
EXTT1=
EXTT2=
EXTT3=
EXTT4=
EXTT5=
EXTT6=
EXTT7=
EXTT8=
EXTT9=
EXTT10=
EXTT11=
EXTT12=
EXTT13=
EXTT14=
EXTT15=
EXTT16=
EXTT17=
EXTT18=
EXTT19=
PLAYORDER=
